<svg width="120" height="120" viewBox="0 0 120 120" fill="none" xmlns="http://www.w3.org/2000/svg">
<rect x="8" y="26" width="104" height="68" rx="18" fill="url(#g1)" stroke="url(#g2)" stroke-width="4"/>
<rect x="28" y="18" width="64" height="12" rx="6" fill="url(#g3)" />
<path d="M46 54c0-4.418 3.582-8 8-8h12c4.418 0 8 3.582 8 8v12c0 4.418-3.582 8-8 8H54c-4.418 0-8-3.582-8-8V54Z" stroke="white" stroke-width="4" stroke-linejoin="round"/>
<path d="M60 50v20" stroke="white" stroke-width="4" stroke-linecap="round"/>
<path d="M50 60h20" stroke="white" stroke-width="4" stroke-linecap="round"/>
<defs>
<linearGradient id="g1" x1="8" y1="26" x2="112" y2="94" gradientUnits="userSpaceOnUse">
<stop stop-color="#1A1F29"/>
<stop offset="1" stop-color="#0B0E14"/>
</linearGradient>
<linearGradient id="g2" x1="8" y1="26" x2="112" y2="94" gradientUnits="userSpaceOnUse">
<stop stop-color="#FF8A1F"/>
<stop offset="0.5" stop-color="#FF2FAD"/>
<stop offset="1" stop-color="#3D7DFF"/>
</linearGradient>
<linearGradient id="g3" x1="28" y1="18" x2="92" y2="30" gradientUnits="userSpaceOnUse">
<stop stop-color="#FF8A1F"/>
<stop offset="0.5" stop-color="#FF2FAD"/>
<stop offset="1" stop-color="#3D7DFF"/>
</linearGradient>
</defs>
</svg>